<svg xmlns="http://www.w3.org/2000/svg" xmlns:xlink="http://www.w3.org/1999/xlink" width="18" height="12" viewBox="0 0 18 12">
    <defs>
        <path id="a" d="M4 6h16a1 1 0 0 1 0 2H4a1 1 0 1 1 0-2zm0 5h16a1 1 0 0 1 0 2H4a1 1 0 0 1 0-2zm0 5h16a1 1 0 0 1 0 2H4a1 1 0 0 1 0-2z"/>
    </defs>
    <g fill="none" fill-rule="evenodd" transform="translate(-3 -6)">
        <mask id="b" fill="#fff">
            <use xlink:href="#a"/>
        </mask>
        <use fill="#FFF" xlink:href="#a"/>
        <g fill="#000" fill-rule="nonzero" mask="url(#b)">
            <path d="M0 0h24v24H0z"/>
        </g>
    </g>
</svg>
