<svg xmlns="http://www.w3.org/2000/svg" width="22" height="22" viewBox="0 0 22 22">
    <g fill="none" fill-rule="nonzero" stroke="#4A4A4A" stroke-width="2">
        <path stroke-linecap="square" d="M3 7.5h16"/>
        <path d="M5 4a2 2 0 0 0-2 2v12a2 2 0 0 0 2 2h12a2 2 0 0 0 2-2V6a2 2 0 0 0-2-2H5z"/>
        <path stroke-linecap="round" d="M6 2v2M16 2v2"/>
        <path d="M12.476 12.527c.25-.038.6-.145 1.033-.326l7.445-7.445-.707-.707-7.445 7.444c-.181.434-.288.783-.326 1.034z"/>
    </g>
</svg>
